# xmcd CD database file
#
# Track frame offsets:
#	150
#	43589
#	71102
#	98436
#	138084
#	167076
#
# Disc length: 2629 seconds
#
# Revision: 0
# Processed by: cddbd v1.4PL0 Copyright (c) Steve Scherf et al.
# Submitted via: CDex 1.51
#
DISCID=470a4306
DTITLE=Art Blakey and The Jazz Messengers - The Big Beat
DYEAR=1900
DGENRE=Jazz
TTITLE0=The Chess Players
TTITLE1=Sakeena's Vision
TTITLE2=Politely
TTITLE3=Dat Dere
TTITLE4=Lester Left Town
TTITLE5=It's Only Paper Moon
EXTD=
EXTT0=
EXTT1=
EXTT2=
EXTT3=
EXTT4=
EXTT5=
PLAYORDER=
